# xmcd
#
# Track frame offsets:
#	150
#	25943
#	47288
#	68626
#	96607
#	116849
#	129414
#	154023
#	186858
#	216145
#	233889
#	260119
#	285038
#	310913
#	326698
#	346604
#
# Disc length: 4782 seconds
#
# Revision: 3
# Processed by: cddbd v1.5.2PL0 Copyright (c) Steve Scherf et al.
# Submitted via: EZCDAudioConverter 6.0.0.1
#
DISCID=e012ac10
DTITLE=Various Artist - Akella Presents - vol.75 - Blues-Rock  CD1
DYEAR=2016
DGENRE=Blues
TTITLE0=Joe Bonamassa - Mountain Climbing
TTITLE1=Cherry and The Lowboys - Leave Me Cold
TTITLE2=Van Wilks - Just Walk Away
TTITLE3=The Pits - It's Raining Sunshine
TTITLE4=Dark Hearts Blues - In Peace, Alone
TTITLE5=Aidan - You Set My Heart on Fire
TTITLE6=Angel Forrest - Hangman
TTITLE7=Too Slim and the Taildraggers - Blood Moon
TTITLE8=Julian Sas - A Change Is Gonna Come
TTITLE9=Ash Grunwald - River
TTITLE10=Danny Bryant - Slow Suicide
TTITLE11=Jimi Barbiani Band - Sixty Nine
TTITLE12=Datura4 - Hoonsville
TTITLE13=Robin Trower - The Fruits of Your Desire
TTITLE14=Pat Travers and  Carmine Appice - Rock Me
TTITLE15=Paul Warren - Gotta Rock
EXTD=
EXTT0=
EXTT1=
EXTT2=
EXTT3=
EXTT4=
EXTT5=
EXTT6=
EXTT7=
EXTT8=
EXTT9=
EXTT10=
EXTT11=
EXTT12=
EXTT13=
EXTT14=
EXTT15=
PLAYORDER=
